<svg aria-hidden="true" style="position: absolute; width: 0; height: 0; overflow: hidden;" version="1.1" xmlns="http://www.w3.org/2000/svg" xmlns:xlink="http://www.w3.org/1999/xlink">
<defs>
<symbol id="icon-flatversionsvgicecream-1319964483943937255_0" viewBox="0 0 16 16">
<path fill="#ffc299" style="fill: var(--color1, #ffc299)" d="M22.285 14.18l-5.946 17.459c-0.164 0.482-0.846 0.482-1.010-0l-0.599-1.761v-0.001l-0.428-1.255-4.918-14.443h12.901z"></path>
<path fill="#ff9a55" style="fill: var(--color2, #ff9a55)" d="M22.285 14.179l-1.6 4.697c-0.253 0.032-0.51 0.049-0.771 0.049-1.49 0-2.856-0.542-3.912-1.438-0.028 0.024-0.056 0.047-0.084 0.070-1.075 0.881-2.437 1.366-3.832 1.366-0.383 0-0.758-0.036-1.122-0.104l-1.58-4.641h12.9z"></path>
<path fill="#ff9a55" style="fill: var(--color2, #ff9a55)" d="M20.125 20.52l-0.323 0.948c-0.012-0.004-0.024-0.009-0.035-0.013l-7.648-3.273c-0.253-0.109-0.371-0.402-0.263-0.656s0.402-0.372 0.656-0.263l7.612 3.257z"></path>
<path fill="#8fe5d8" style="fill: var(--color3, #8fe5d8)" d="M21.016 5.645c0 0.287-0.022 0.57-0.063 0.846-0.273 1.813-1.407 3.343-2.974 4.161-0.78 0.408-1.667 0.638-2.608 0.638-0.462 0-0.91-0.056-1.339-0.16-2.136-0.52-3.796-2.254-4.207-4.429-0.065-0.342-0.099-0.695-0.099-1.055 0-0.689 0.123-1.348 0.349-1.958 0.796-2.153 2.866-3.688 5.296-3.688s4.5 1.535 5.296 3.688c0.226 0.61 0.349 1.269 0.349 1.958z"></path>
<path fill="#63cec1" style="fill: var(--color4, #63cec1)" d="M20.647 6.484c-1.732 0-3.319 0.629-4.546 1.67-1.227-1.041-2.814-1.671-4.545-1.671-0.598 0-1.178 0.075-1.732 0.216 0.411 2.175 2.071 3.91 4.207 4.429 0.429 0.104 0.878 0.16 1.339 0.16 0.941 0 1.829-0.23 2.608-0.638 1.566-0.818 2.701-2.348 2.974-4.161-0.101-0.005-0.203-0.007-0.305-0.007z"></path>
<path fill="#ffa6b7" style="fill: var(--color5, #ffa6b7)" d="M20.667 3.688h-2.771c-0.384 0-0.695 0.311-0.695 0.695v0.231c0 0.438-0.355 0.792-0.792 0.792v0c-0.438 0-0.792-0.355-0.792-0.792v-1.188c0-0.412-0.334-0.746-0.746-0.746v0c-0.412 0-0.746 0.334-0.746 0.746v2.689c0 0.384-0.311 0.695-0.695 0.695v0c-0.384 0-0.695-0.311-0.695-0.695v-1.731c0-0.384-0.311-0.695-0.695-0.695h-1.965c0.796-2.153 2.866-3.688 5.296-3.688s4.5 1.535 5.296 3.688z"></path>
<path fill="#ffc988" style="fill: var(--color6, #ffc988)" d="M16.946 12.868c0 1.517-0.695 2.873-1.785 3.763-0.837 0.686-1.908 1.097-3.075 1.097-2.685 0-4.861-2.176-4.861-4.86s2.176-4.861 4.861-4.861c1.166 0 2.237 0.411 3.075 1.097 1.090 0.891 1.785 2.246 1.785 3.764z"></path>
<path fill="#ffb64d" style="fill: var(--color7, #ffb64d)" d="M16.946 12.868c0 1.517-0.695 2.873-1.785 3.763-0.821-1.034-1.31-2.342-1.31-3.763s0.49-2.73 1.31-3.764c1.090 0.891 1.785 2.247 1.785 3.764z"></path>
<path fill="#c4c8f7" style="fill: var(--color8, #c4c8f7)" d="M24.774 12.868c0 2.684-2.176 4.86-4.86 4.86s-4.86-2.176-4.86-4.86c0-2.684 2.176-4.86 4.86-4.86s4.86 2.176 4.86 4.86z"></path>
<path fill="#a6aef2" style="fill: var(--color9, #a6aef2)" d="M21.596 11.745h-0.091c-0.276 0-0.5-0.224-0.5-0.5s0.224-0.5 0.5-0.5h0.091c0.276 0 0.5 0.224 0.5 0.5s-0.224 0.5-0.5 0.5z"></path>
<path fill="#a6aef2" style="fill: var(--color9, #a6aef2)" d="M22.595 13.169h-0.091c-0.276 0-0.5-0.224-0.5-0.5s0.224-0.5 0.5-0.5h0.091c0.276 0 0.5 0.224 0.5 0.5s-0.224 0.5-0.5 0.5z"></path>
<path fill="#ffb64d" style="fill: var(--color7, #ffb64d)" d="M10.68 15.688h-0.091c-0.276 0-0.5-0.224-0.5-0.5s0.224-0.5 0.5-0.5h0.091c0.276 0 0.5 0.224 0.5 0.5s-0.224 0.5-0.5 0.5z"></path>
<path fill="#ff9a55" style="fill: var(--color2, #ff9a55)" d="M19.090 23.561l-0.323 0.948c-0.011-0.003-0.022-0.007-0.033-0.012l-3.875-1.631c-0.255-0.107-0.374-0.4-0.267-0.654s0.4-0.374 0.654-0.267l3.842 1.617z"></path>
<path fill="#ff9a55" style="fill: var(--color2, #ff9a55)" d="M13.572 21.781c-0.080 0.191-0.266 0.306-0.46 0.306-0.065 0-0.131-0.013-0.194-0.039l-0.997-0.42-0.434-1.272 1.819 0.771c0.255 0.107 0.374 0.4 0.267 0.654z"></path>
<path fill="#ff9a55" style="fill: var(--color2, #ff9a55)" d="M18.037 26.652l-0.323 0.947c-0.011-0.004-0.023-0.008-0.033-0.013l-4.356-1.835-0.436-1.28c0.207 0.092 0.371 0.165 0.434 0.195l4.714 1.985z"></path>
<path fill="#ff9a55" style="fill: var(--color2, #ff9a55)" d="M16.985 29.742l-0.323 0.948c-0.011-0.003-0.022-0.007-0.033-0.012l-1.899-0.8-0.428-1.255 2.683 1.12z"></path>
<path fill="#c4c8f7" style="fill: var(--color8, #c4c8f7)" d="M17.436 15.265v2.345c0 0.676 0.548 1.224 1.224 1.224v0c0.676 0 1.224-0.548 1.224-1.224v-0.026c0-0.33 0.268-0.598 0.598-0.598v0c0.33 0 0.598 0.268 0.598 0.598v2.452c0 0.599 0.485 1.084 1.084 1.084v0c0.599 0 1.084-0.485 1.084-1.084v-6.353l-5.813 1.582z"></path>
</symbol>
</defs>
</svg>
